<svg width="508" height="627" viewBox="0 0 508 627" fill="none" xmlns="http://www.w3.org/2000/svg">
<path fill-rule="evenodd" clip-rule="evenodd" d="M315.097 148.397C312.752 151.384 310.237 154.243 307.509 156.889H306.997C294.25 169.734 277.965 178.482 260.273 182.024C242.581 185.566 224.207 183.731 207.538 176.775C190.869 169.819 176.588 158.041 166.57 142.935C156.551 127.828 151.18 110.076 151.18 91.8964C151.18 73.7172 156.551 55.9648 166.57 40.8581C176.588 25.7515 190.869 13.9734 207.538 7.01752C224.207 0.0189657 242.581 -1.77335 260.273 1.76861C277.965 5.31056 294.25 14.0588 306.997 26.9037C309.385 29.3361 311.687 31.9392 313.818 34.6277C317.143 38.6817 320.938 42.2664 325.201 45.2962C367.32 75.3815 461.109 73.5892 493.594 43.9306C503.059 35.3105 514.825 29.6348 527.401 27.6291C540.02 25.6234 552.937 27.4158 564.575 32.7074C576.214 37.9989 586.019 46.6191 592.84 57.501C599.661 68.3829 603.157 81.0145 602.944 93.8594C602.73 106.704 598.766 119.208 591.561 129.834C584.356 140.46 574.253 148.696 562.444 153.603C550.635 158.511 537.675 159.791 525.142 157.358C512.608 154.926 501.055 148.824 491.889 139.862C454.928 103.504 347.241 106.619 315.054 148.354L315.097 148.397ZM111.064 361.554C148.11 325.196 255.754 328.396 287.856 370.046C290.414 373.034 293.142 375.893 296.041 378.539C308.788 391.383 325.073 400.132 342.765 403.674C360.457 407.216 378.831 405.381 395.5 398.467C412.169 391.512 426.407 379.733 436.468 364.627C446.487 349.52 451.858 331.768 451.858 313.589C451.858 295.409 446.487 277.657 436.468 262.55C426.45 247.444 412.211 235.666 395.5 228.71C378.831 221.754 360.499 219.919 342.765 223.461C325.073 227.003 308.788 235.751 296.041 248.596C293.568 251.028 291.266 253.589 289.135 256.32C285.852 260.374 282.015 263.958 277.752 266.988C235.675 297.074 141.801 295.281 109.401 265.623C99.937 257.003 88.2133 251.327 75.5945 249.321C62.9756 247.316 50.0583 249.108 38.4626 254.399C26.8243 259.691 17.0191 268.311 10.1981 279.193C3.2918 290.032 -0.203962 302.664 0.00919487 315.509C0.222351 328.354 4.18706 340.857 11.3918 351.483C18.5964 362.109 28.7001 370.345 40.5089 375.253C52.3178 380.16 65.2777 381.44 77.8113 379.008C90.3449 376.576 101.898 370.473 111.021 361.512L111.064 361.554ZM494.149 488.681C461.621 518.04 367.704 519.79 325.584 490.003C321.364 486.974 317.527 483.432 314.202 479.42C312.07 476.732 309.768 474.171 307.381 471.696C294.591 458.979 278.306 450.274 260.572 446.775C242.837 443.275 224.42 445.068 207.709 451.938C190.997 458.809 176.716 470.501 166.655 485.437C156.594 500.416 151.222 517.998 151.222 536.006C151.222 554.015 156.594 571.596 166.655 586.575C176.716 601.554 190.997 613.204 207.709 620.074C224.42 626.945 242.794 628.78 260.572 625.238C278.306 621.738 294.591 613.033 307.381 600.316C310.109 597.713 312.624 594.896 314.969 591.909C347.156 550.729 454.97 547.528 491.974 583.502C501.14 592.379 512.651 598.353 525.184 600.743C537.718 603.133 550.678 601.852 562.487 597.03C574.295 592.208 584.399 584.014 591.604 573.559C598.808 563.061 602.773 550.729 602.986 538.012C603.199 525.295 599.704 512.834 592.883 502.08C586.062 491.326 576.256 482.834 564.618 477.585C552.98 472.336 540.105 470.587 527.486 472.55C514.867 474.513 503.613 480.018 494.149 488.553V488.681Z" fill="#F0FCFC"/>
</svg>
